<svg width="277" height="42" viewBox="0 0 277 42" fill="none" xmlns="http://www.w3.org/2000/svg">
<path d="M46.6044 5.70265C39.7977 2.19214 32.2673 0.327267 24.6144 0.256958C22.9376 0.256958 12.1474 0.436775 2.71395 5.70265C2.71395 5.70265 -0.0380012 7.10259 0.000398149 11.4309L0.0771938 20.7168V21.3461L0.153989 30.6321C0.153989 34.9603 2.96994 36.3603 2.96994 36.3603C12.493 41.6261 23.296 41.806 24.9728 41.806C26.6496 41.806 37.4398 41.6261 46.8604 36.3603C46.8604 36.3603 49.6252 34.9603 49.5868 30.6321L49.51 21.3461V20.7168L49.4332 11.4309C49.3948 7.10259 46.6044 5.70265 46.6044 5.70265Z" fill="#ED1C24"/>
<path d="M33.1002 9.40161L50.2647 19.5224L51.2887 35.0245C51.2887 35.0245 42.06 43.6555 32.217 41.7161L14.9373 31.8779L27.0074 30.5935L29.5674 22.5791L20.4028 19.304L19.5836 11.4052L33.1002 9.40161Z" fill="#C8161D"/>
<path d="M18.1376 21.0635L35.0589 29.81L35.6349 22.2836L18.1376 21.0635Z" fill="#C8161D"/>
<path d="M236.733 13.6144V9.24756H227.299C222.811 9.24756 220.562 11.4438 220.554 15.8363C220.554 19.3127 222.358 21.3676 225.968 22.0012L230.755 22.7719C231.83 22.9774 232.368 23.7993 232.368 25.2507C232.368 26.702 231.715 27.357 230.41 27.357H220.592V27.4469V31.7238H230.64C235.158 31.7238 237.424 29.5019 237.424 25.0837C237.424 21.5389 235.632 19.4711 232.048 18.8802L227.274 18.1096C226.134 17.9041 225.571 17.1078 225.571 15.7207C225.571 14.3336 226.237 13.6144 227.568 13.6144H236.771H236.733Z" fill="white"/>
<path d="M100.388 24.9551V15.9646C100.388 11.4608 102.637 9.20461 107.134 9.19604H113.073C117.54 9.19604 119.767 11.4565 119.78 15.9646V24.9551C119.78 29.4632 117.553 31.7237 113.099 31.7237H107.121C102.641 31.7237 100.397 29.4675 100.388 24.9551ZM105.38 25.3918C105.344 25.6596 105.37 25.9321 105.456 26.1881C105.543 26.444 105.687 26.6764 105.878 26.8669C106.069 27.0573 106.302 27.2007 106.557 27.2858C106.813 27.3708 107.085 27.3951 107.352 27.3569H112.843C113.109 27.3951 113.381 27.3708 113.637 27.2858C113.892 27.2007 114.125 27.0573 114.316 26.8669C114.507 26.6764 114.651 26.444 114.738 26.1881C114.824 25.9321 114.85 25.6596 114.814 25.3918V15.5793C114.85 15.3128 114.824 15.0415 114.738 14.7867C114.652 14.5318 114.509 14.3003 114.32 14.1101C114.13 13.9199 113.899 13.7762 113.645 13.6902C113.391 13.6042 113.121 13.5782 112.855 13.6142H107.339C107.073 13.5755 106.801 13.5996 106.546 13.6846C106.291 13.7696 106.059 13.9133 105.869 14.1041C105.678 14.2949 105.535 14.5276 105.45 14.7837C105.366 15.0398 105.342 15.3123 105.38 15.5793V25.3918Z" fill="white"/>
<path d="M192.137 31.7238C187.645 31.7238 185.392 29.489 185.392 25.0452C185.392 20.6013 187.645 18.3665 192.137 18.3665H198.704V15.5794C198.742 15.3124 198.718 15.04 198.634 14.7838C198.549 14.5277 198.406 14.295 198.216 14.1042C198.025 13.9134 197.793 13.7698 197.538 13.6847C197.283 13.5997 197.012 13.5756 196.745 13.6144H187.696V10.9172L189.923 9.24756H197.001C201.473 9.24756 203.704 11.5037 203.696 16.0161V31.7238H192.137ZM190.384 25.3919C190.345 25.659 190.369 25.9314 190.454 26.1875C190.539 26.4436 190.682 26.6763 190.872 26.8672C191.062 27.058 191.294 27.2016 191.549 27.2867C191.805 27.3717 192.076 27.3958 192.342 27.357H198.742V22.2196H192.342C192.079 22.1794 191.811 22.2012 191.557 22.2832C191.304 22.3653 191.074 22.5052 190.884 22.6921C190.694 22.879 190.55 23.1076 190.463 23.36C190.376 23.6123 190.349 23.8815 190.384 24.1461V25.3919Z" fill="white"/>
<path d="M240.367 31.7238V26.1625H245.923V31.7238H240.367Z" fill="#ED1C24"/>
<path d="M249.545 31.7238V9.24757H254.537V31.7238H249.545ZM249.417 5.35594V0.218506H254.665V5.35594H249.417Z" fill="#ED1C24"/>
<path d="M258.031 24.9551V15.9646C258.031 11.4608 260.275 9.20457 264.763 9.19601H272.021V0H277V31.6723H264.763C260.271 31.7237 258.031 29.4246 258.031 24.9551ZM263.023 25.3918C262.984 25.6588 263.008 25.9312 263.093 26.1873C263.178 26.4435 263.321 26.6762 263.511 26.867C263.701 27.0578 263.933 27.2015 264.188 27.2865C264.443 27.3715 264.715 27.3956 264.981 27.3569H272.021V13.6142H264.981C264.715 13.5754 264.443 13.5995 264.188 13.6846C263.933 13.7696 263.701 13.9132 263.511 14.104C263.321 14.2949 263.178 14.5276 263.093 14.7837C263.008 15.0398 262.984 15.3122 263.023 15.5793V25.3918Z" fill="#ED1C24"/>
<path d="M90.5452 9.24756H78.2574V13.6144H90.2892C90.5554 13.5756 90.8269 13.5997 91.0821 13.6847C91.3374 13.7698 91.5693 13.9134 91.7594 14.1042C91.9496 14.295 92.0928 14.5277 92.1775 14.7838C92.2623 15.04 92.2863 15.3124 92.2476 15.5794V25.3919C92.2863 25.659 92.2623 25.9314 92.1775 26.1875C92.0928 26.4436 91.9496 26.6763 91.7594 26.8672C91.5693 27.058 91.3374 27.2016 91.0821 27.2867C90.8269 27.3717 90.5554 27.3958 90.2892 27.357H83.2494V17.0179H78.2574V40.2777H83.2494V31.7238H90.5452C95.0081 31.7238 97.2395 29.4676 97.2395 24.9552V15.9647C97.2395 11.4952 95.0081 9.25612 90.5452 9.24756Z" fill="white"/>
<path d="M187.748 9.24756H193.059L193.994 13.6144H187.722L187.748 9.24756Z" fill="white"/>
<path d="M142.321 13.6143H147.697V9.24746H142.321V2.18347H137.393V24.9551C137.393 29.459 139.641 31.7152 144.138 31.7237H150.436V27.3697H144.318C144.051 27.4085 143.78 27.3844 143.525 27.2994C143.269 27.2144 143.037 27.0707 142.847 26.8799C142.657 26.6891 142.514 26.4564 142.429 26.2003C142.345 25.9442 142.32 25.6717 142.359 25.4047L142.321 13.6143Z" fill="white"/>
<path d="M175.076 13.6143H180.451V9.24746H175.063V2.18347H170.084V24.9551C170.084 29.459 172.332 31.7152 176.829 31.7237H183.139V27.3697H177.072C176.806 27.408 176.534 27.3836 176.278 27.2986C176.023 27.2136 175.79 27.0702 175.599 26.8798C175.408 26.6893 175.264 26.4569 175.177 26.201C175.091 25.945 175.065 25.6724 175.101 25.4047L175.076 13.6143Z" fill="white"/>
<path d="M74.6742 13.6144V9.24756H65.2407C60.7352 9.24756 58.4952 11.4438 58.4952 15.8363C58.4952 19.3127 60.3 21.3676 63.9095 22.0012L68.6839 22.7719C69.7719 22.9774 70.3094 23.7993 70.3094 25.2507C70.3094 26.702 69.6567 27.357 68.3511 27.357H58.4952V27.4469V31.7238H68.5431C73.0614 31.7238 75.327 29.5019 75.327 25.0837C75.327 21.5389 73.535 19.4711 69.951 18.8802L65.1767 18.1096C64.0376 17.9041 63.4744 17.1078 63.4616 15.7207C63.4488 14.3336 64.1399 13.6144 65.4711 13.6144H74.6742Z" fill="white"/>
<path d="M167.946 13.6144V9.24756H158.513C154.008 9.24756 151.768 11.4438 151.768 15.8363C151.768 19.3127 153.572 21.3676 157.182 22.0012L161.969 22.7719C163.044 22.9774 163.582 23.7993 163.582 25.2507C163.582 26.702 162.929 27.357 161.623 27.357H151.768V27.4469V31.7238H161.815C166.334 31.7238 168.599 29.5019 168.599 25.0837C168.599 21.5389 166.807 19.4711 163.223 18.8802L158.449 18.1096C157.31 17.9041 156.747 17.1078 156.747 15.7207C156.747 14.3336 157.412 13.6144 158.743 13.6144H167.946Z" fill="white"/>
<path d="M129.509 9.24756H129.01C126.335 9.24756 124.479 10.0824 123.403 11.675C123.274 11.9397 123.179 12.2204 123.122 12.5098V31.7752H128.114V14.8859C128.114 14.7574 128.242 14.0896 129.279 13.7428C129.566 13.6631 129.863 13.62 130.162 13.6144H135.755V9.24756H129.509Z" fill="white"/>
<path d="M213.206 9.24756H212.707C210.019 9.24756 208.163 10.0824 207.088 11.675C206.954 11.9368 206.863 12.2188 206.819 12.5098V31.7752H211.811V14.8859C211.811 14.7574 211.926 14.0896 212.963 13.7428C213.251 13.664 213.548 13.6209 213.846 13.6144H219.44V9.24756H213.206Z" fill="white"/>
<path d="M32.7033 13.7813L33.1001 9.40161H23.6666C19.1611 9.40161 16.7291 11.5979 16.3451 15.9904C16.0379 19.4667 17.6635 21.5217 21.2219 22.1553L25.9322 22.9259C26.9946 23.1314 27.4682 23.9534 27.3402 25.4047C27.3556 25.6898 27.3102 25.975 27.2069 26.241C27.1036 26.5071 26.9448 26.7479 26.7411 26.9474C26.5375 27.1468 26.2938 27.3003 26.0262 27.3975C25.7587 27.4947 25.4735 27.5335 25.1898 27.5111H15.3467V27.601L14.95 31.8779H24.9978C29.5161 31.8779 31.9737 29.6559 32.3577 25.2377C32.6649 21.7057 31.0777 19.6251 27.5194 19.0343L22.809 18.2637C21.6912 18.0582 21.192 17.2619 21.3114 15.8748C21.2975 15.5867 21.3452 15.2989 21.4515 15.0309C21.5578 14.763 21.7202 14.521 21.9276 14.3213C22.1351 14.1217 22.3829 13.969 22.6541 13.8736C22.9254 13.7782 23.2139 13.7424 23.5002 13.7684H32.7161L32.7033 13.7813Z" fill="white"/>
<path d="M22.6815 9.40161H13.4272C13.4272 9.40161 14.3104 14.1794 20.0832 14.1794L22.6815 9.40161Z" fill="white"/>
</svg>
