<svg width="215" height="33" viewBox="0 0 215 33" fill="none" xmlns="http://www.w3.org/2000/svg">
<g clip-path="url(#clip0_2_5139)">
<path d="M14.0656 16.3457L27.0551 23.1588L27.6123 17.2941L14.0656 16.3457Z" fill="#C8161D"/>
<path d="M36.3458 4.43245C29.0439 0.338774 20.6756 0.193604 19.3786 0.193604C18.0816 0.193604 9.70372 0.338774 2.33465 4.43245C2.33465 4.43245 0.172961 5.51637 0.144138 8.88421L0.0768776 16.0457V16.5393L0 23.7879C0 27.1558 2.10408 28.2397 2.10408 28.2397C9.40589 32.3334 17.7741 32.4785 19.0712 32.4785C20.3682 32.4785 28.7461 32.3334 36.1151 28.2397C36.1151 28.2397 38.2769 27.1558 38.3057 23.7879L38.373 16.5683C38.373 16.2586 38.373 16.0748 38.373 16.0748L38.4402 8.85518C38.4883 5.47766 36.3458 4.43245 36.3458 4.43245Z" fill="#ED1C24"/>
<path d="M183.593 10.5584L183.669 7.15186H176.358C172.874 7.15186 171.103 8.86158 171.045 12.281C170.994 14.9908 172.364 16.6038 175.157 17.1199L178.846 17.72C179.682 17.8748 180.086 18.5232 180.067 19.6555C180.098 19.8709 180.081 20.0908 180.016 20.2985C179.95 20.5061 179.839 20.696 179.69 20.8537C179.54 21.0114 179.358 21.1327 179.155 21.2085C178.952 21.2843 178.735 21.3125 178.52 21.291H170.882V21.3588L170.805 24.6782H178.587C182.091 24.6782 183.874 22.9588 183.939 19.52C183.99 16.7651 182.629 15.1521 179.855 14.6811L176.166 14.0811C175.959 14.0474 175.76 13.9721 175.583 13.8597C175.405 13.7472 175.252 13.6 175.132 13.4267C175.012 13.2533 174.927 13.0575 174.884 12.8507C174.84 12.6439 174.838 12.4305 174.879 12.223C174.848 12.0043 174.867 11.7814 174.935 11.5715C175.003 11.3615 175.118 11.1702 175.271 11.0121C175.425 10.8541 175.612 10.7336 175.819 10.6599C176.025 10.5863 176.246 10.5615 176.464 10.5874H183.602L183.593 10.5584Z" fill="#24326F"/>
<path d="M77.7643 19.3748L77.8892 12.4165C77.9533 8.90675 79.7275 7.15186 83.2118 7.15186H87.8427C91.3015 7.15186 92.9988 8.90675 92.9348 12.4165L92.8098 19.3748C92.7458 22.8846 90.9844 24.6395 87.5256 24.6395H82.8948C79.4104 24.6395 77.7003 22.8846 77.7643 19.3748ZM81.6074 19.7136C81.5734 19.9195 81.5882 20.1306 81.6506 20.3297C81.7129 20.5288 81.821 20.7102 81.9662 20.8593C82.1113 21.0083 82.2894 21.1207 82.4858 21.1873C82.6822 21.2539 82.8915 21.2729 83.0965 21.2426H87.3623C87.5695 21.2705 87.7802 21.2504 87.9785 21.1839C88.1767 21.1173 88.3573 21.0061 88.5065 20.8586C88.6556 20.7112 88.7695 20.5314 88.8392 20.333C88.909 20.1346 88.9329 19.9227 88.9091 19.7136L89.0437 12.0875C89.0776 11.8816 89.0628 11.6705 89.0005 11.4714C88.9381 11.2723 88.8299 11.0908 88.6848 10.9418C88.5397 10.7928 88.3617 10.6804 88.1652 10.6138C87.9688 10.5471 87.7596 10.5282 87.5545 10.5584H83.2887C83.0816 10.5305 82.8708 10.5507 82.6726 10.6172C82.4743 10.6838 82.2937 10.795 82.1445 10.9424C81.9954 11.0899 81.8816 11.2697 81.8118 11.4681C81.742 11.6665 81.7181 11.8784 81.7419 12.0875L81.6074 19.7136Z" fill="#24326F"/>
<path d="M148.774 24.6395C145.296 24.6395 143.586 22.9072 143.644 19.4426C143.702 15.978 145.473 14.2456 148.957 14.2456H154.078V12.0778C154.112 11.8719 154.097 11.6608 154.035 11.4617C153.972 11.2626 153.864 11.0811 153.719 10.9321C153.574 10.7831 153.396 10.6707 153.199 10.6041C153.003 10.5374 152.794 10.5185 152.589 10.5487H145.575V8.44867L147.314 7.15186H152.8C156.259 7.15186 157.956 8.90675 157.892 12.4165L157.671 24.6395H148.717H148.774ZM147.506 19.7136C147.472 19.9195 147.487 20.1306 147.549 20.3297C147.612 20.5288 147.72 20.7102 147.865 20.8593C148.01 21.0083 148.188 21.1207 148.385 21.1873C148.581 21.2539 148.79 21.2729 148.995 21.2426H153.924L154.001 17.2844H149.072C148.867 17.2535 148.658 17.2705 148.46 17.334C148.262 17.3976 148.082 17.506 147.932 17.651C147.783 17.7959 147.668 17.9735 147.598 18.17C147.527 18.3666 147.503 18.5768 147.525 18.7845L147.506 19.7136Z" fill="#24326F"/>
<path d="M186.158 24.6394L186.235 20.3135H190.529L190.452 24.6394H186.158Z" fill="#ED1C24"/>
<path d="M193.267 24.6395L193.585 7.16156H197.428L197.111 24.6395H193.267ZM193.536 4.12274L193.604 0.164551H197.668L197.601 4.12274H193.536Z" fill="#ED1C24"/>
<path d="M199.935 19.3747L200.06 12.4164C200.124 8.90665 201.898 7.15175 205.383 7.15175H211.003L211.128 -0.00976562H214.971L214.529 24.6297H205.046C201.575 24.6362 199.871 22.8845 199.935 19.3747ZM203.778 19.7135C203.744 19.9194 203.759 20.1305 203.821 20.3296C203.884 20.5287 203.992 20.7101 204.137 20.8592C204.282 21.0082 204.46 21.1206 204.657 21.1872C204.853 21.2538 205.062 21.2728 205.268 21.2425H210.763L210.955 10.597H205.498C205.291 10.5692 205.08 10.5893 204.882 10.6558C204.684 10.7224 204.503 10.8336 204.354 10.981C204.205 11.1285 204.091 11.3082 204.021 11.5067C203.951 11.7051 203.927 11.917 203.951 12.1261L203.778 19.7135Z" fill="#ED1C24"/>
<path d="M70.3472 7.15186H60.8261L60.7684 10.5487H70.0879C70.2929 10.5185 70.5022 10.5374 70.6986 10.6041C70.895 10.6707 71.073 10.7831 71.2182 10.9321C71.3633 11.0811 71.4715 11.2626 71.5338 11.4617C71.5962 11.6608 71.611 11.8719 71.577 12.0778L71.4521 19.7136C71.4759 19.9227 71.452 20.1345 71.3822 20.333C71.3124 20.5314 71.1986 20.7112 71.0495 20.8586C70.9003 21.0061 70.7197 21.1173 70.5215 21.1839C70.3232 21.2504 70.1125 21.2705 69.9053 21.2426H64.4386L64.5826 13.2004H60.7396L60.413 31.3075H64.256L64.3809 24.6492H70.0398C73.4986 24.6492 75.26 22.8943 75.324 19.3845L75.4489 12.4262C75.5065 8.90999 73.806 7.15186 70.3472 7.15186Z" fill="#24326F"/>
<path d="M145.691 7.15186H149.812L150.466 10.5584H145.614L145.691 7.15186Z" fill="#24326F"/>
<path d="M110.411 10.5486H114.581L114.648 7.15173H110.478L110.574 1.65479H106.731L106.414 19.365C106.35 22.8748 108.06 24.6297 111.545 24.6297H116.435L116.512 21.2425H111.775C111.57 21.2728 111.361 21.2538 111.165 21.1872C110.968 21.1206 110.79 21.0082 110.645 20.8591C110.5 20.7101 110.392 20.5287 110.329 20.3296C110.267 20.1305 110.252 19.9194 110.286 19.7134L110.411 10.5486Z" fill="#24326F"/>
<path d="M135.823 10.5486H139.993L140.06 7.15173H135.823L135.919 1.65479H132.076L131.759 19.365C131.695 22.8748 133.405 24.6297 136.89 24.6297H141.78L141.857 21.2425H137.12C136.915 21.2728 136.706 21.2538 136.51 21.1872C136.313 21.1206 136.135 21.0082 135.99 20.8591C135.845 20.7101 135.737 20.5287 135.674 20.3296C135.612 20.1305 135.597 19.9194 135.631 19.7134L135.823 10.5486Z" fill="#24326F"/>
<path d="M57.9533 10.5584L58.0302 7.15186H50.7187C47.2343 7.15186 45.4634 8.86158 45.4057 12.281C45.3545 14.9908 46.7251 16.6038 49.5178 17.1199L53.2071 17.72C54.043 17.8748 54.4465 18.5232 54.4273 19.6555C54.459 19.8709 54.4416 20.0908 54.3762 20.2985C54.3109 20.5061 54.1994 20.696 54.0503 20.8537C53.9011 21.0114 53.7182 21.1327 53.5155 21.2085C53.3128 21.2843 53.0956 21.3125 52.8804 21.291H45.2423V21.3588L45.1655 24.6782H52.9477C56.4513 24.6782 58.2351 22.9588 58.2992 19.52C58.3504 16.7651 56.9893 15.1521 54.2159 14.6811L50.5266 14.0811C50.3194 14.0474 50.1211 13.9721 49.9434 13.8597C49.7657 13.7472 49.6123 13.6 49.4923 13.4267C49.3722 13.2533 49.2879 13.0575 49.2444 12.8507C49.2009 12.6439 49.1991 12.4305 49.2392 12.223C49.2082 12.0043 49.2276 11.7814 49.2957 11.5715C49.3638 11.3615 49.4789 11.1702 49.6321 11.0121C49.7852 10.8541 49.9724 10.7336 50.1792 10.6599C50.3859 10.5863 50.6067 10.5615 50.8244 10.5874H57.9629L57.9533 10.5584Z" fill="#24326F"/>
<path d="M130.28 10.5584L130.357 7.15186H123.045C119.561 7.15186 117.79 8.86158 117.732 12.281C117.681 14.9908 119.052 16.6038 121.844 17.1199L125.534 17.72C126.369 17.8748 126.773 18.5232 126.754 19.6555C126.785 19.8709 126.768 20.0908 126.703 20.2985C126.637 20.5061 126.526 20.696 126.377 20.8537C126.228 21.0114 126.045 21.1327 125.842 21.2085C125.639 21.2843 125.422 21.3125 125.207 21.291H117.569V21.3588L117.492 24.6782H125.255C128.759 24.6782 130.542 22.9588 130.606 19.52C130.658 16.7651 129.297 15.1521 126.523 14.6811L122.834 14.0811C122.627 14.0474 122.428 13.9721 122.251 13.8597C122.073 13.7472 121.92 13.6 121.8 13.4267C121.679 13.2533 121.595 13.0575 121.552 12.8507C121.508 12.6439 121.506 12.4305 121.546 12.223C121.515 12.0043 121.535 11.7814 121.603 11.5715C121.671 11.3615 121.786 11.1702 121.939 11.0121C122.092 10.8541 122.28 10.7336 122.486 10.6599C122.693 10.5863 122.914 10.5615 123.132 10.5874H130.27L130.28 10.5584Z" fill="#24326F"/>
<path d="M100.554 7.15186H100.169C98.0845 7.15186 96.6434 7.80028 95.7883 9.03902C95.6816 9.24319 95.604 9.46145 95.5577 9.68742L95.2887 24.6395H99.1318L99.3623 11.5456C99.4105 11.3149 99.529 11.1051 99.7013 10.9455C99.8735 10.7859 100.091 10.6844 100.323 10.6552C100.546 10.5956 100.775 10.5631 101.005 10.5584H105.338L105.415 7.15186H100.563H100.554Z" fill="#24326F"/>
<path d="M165.415 7.15186H165.031C162.946 7.15186 161.505 7.80028 160.65 9.03902C160.543 9.24314 160.465 9.46142 160.419 9.68742L160.15 24.6395H163.993L164.224 11.5456C164.272 11.3149 164.39 11.1051 164.562 10.9455C164.735 10.7859 164.952 10.6844 165.184 10.6552C165.407 10.5956 165.636 10.5631 165.866 10.5584H170.2L170.276 7.15186H165.415Z" fill="#24326F"/>
<path d="M17.7452 7.27759H10.5684C10.5684 7.27759 11.1832 10.9938 15.6604 10.9938L17.7452 7.27759Z" fill="white"/>
<path d="M38.3154 23.7878L38.3826 16.5682C38.3826 16.2585 38.3826 16.0746 38.3826 16.0746V14.7972L25.8062 7.27759L15.2378 8.88409L15.8238 15.0778L22.8855 17.6328L20.8006 23.7878L11.4332 24.7556L24.1248 32.0913C28.3218 31.531 32.3856 30.22 36.1248 28.2202C36.1248 28.2202 38.2769 27.1653 38.3154 23.7878Z" fill="#C8161D"/>
<path d="M25.4507 10.6746L25.8254 7.26807H18.514C15.0296 7.26807 13.1081 8.97782 12.7494 12.3973C12.4612 15.107 13.6941 16.72 16.4483 17.2361L20.0896 17.8362C20.9063 17.991 21.2618 18.6394 21.1465 19.7717C21.1554 19.9947 21.1171 20.2171 21.0344 20.4241C20.9516 20.6311 20.8262 20.8181 20.6663 20.9727C20.5065 21.1273 20.316 21.246 20.1073 21.3209C19.8985 21.3958 19.6764 21.4252 19.4555 21.4072H11.8174V21.475L11.4332 24.7557H19.2153C22.7189 24.7557 24.6405 23.0363 24.9799 19.5975C25.2682 16.8426 24.048 15.2296 21.3194 14.7586L17.6781 14.1586C16.8134 14.0038 16.4387 13.3844 16.554 12.3005C16.5476 12.0748 16.5889 11.8503 16.675 11.6418C16.7611 11.4333 16.8901 11.2456 17.0536 11.091C17.217 10.9364 17.4111 10.8185 17.6231 10.7451C17.8351 10.6716 18.0601 10.6443 18.2834 10.665H25.4219L25.4507 10.6746Z" fill="white"/>
</g>
<defs>
<clipPath id="clip0_2_5139">
<rect width="215" height="32.4881" fill="white"/>
</clipPath>
</defs>
</svg>
