<svg width="20" height="20" viewBox="0 0 20 20" fill="none" xmlns="http://www.w3.org/2000/svg">
<path fill-rule="evenodd" clip-rule="evenodd" d="M11.3977 2.18469C12.2687 2.18469 12.9748 2.8908 12.9748 3.76184C12.9748 4.90316 13.787 5.86085 14.8661 6.08016C15.7197 6.25366 16.271 7.08626 16.0975 7.93984C15.924 8.79339 15.0914 9.34476 14.2378 9.17128C13.7954 9.0813 13.372 8.93849 12.9748 8.74971V13.2247C12.9748 15.8378 10.8565 17.9561 8.24339 17.9561C5.63029 17.9561 3.51196 15.8378 3.51196 13.2247C3.51196 11.0179 5.02134 9.16757 7.0617 8.64238C7.90524 8.4253 8.76511 8.93313 8.9822 9.77666C9.1993 10.6202 8.69146 11.4801 7.84794 11.6972C7.16736 11.8723 6.66625 12.492 6.66625 13.2247C6.66625 14.0957 7.37236 14.8018 8.24339 14.8018C9.11445 14.8018 9.82053 14.0957 9.82053 13.2247V3.76184C9.82053 2.8908 10.5266 2.18469 11.3977 2.18469Z" fill="#24326F"/>
</svg>
